Coordinates
version=1
nRows=6
nColumns=63
inDegrees=yes

Units are S.I. units (second, meters, Newtons, ...)
If the header above contains a line with 'inDegrees', this indicates whether rotational values are in degrees (yes) or radians (no).

endheader
time	pelvis_tilt	pelvis_list	pelvis_rotation	pelvis_tx	pelvis_ty	pelvis_tz	hip_flexion_r	hip_adduction_r	hip_rotation_r	knee_angle_r	knee_angle_r_beta	ankle_angle_r	subtalar_angle_r	mtp_angle_r	hip_flexion_l	hip_adduction_l	hip_rotation_l	knee_angle_l	knee_angle_l_beta	ankle_angle_l	subtalar_angle_l	mtp_angle_l	L5_S1_Flex_Ext	L5_S1_Lat_Bending	L5_S1_axial_rotation	L4_L5_Flex_Ext	L4_L5_Lat_Bending	L4_L5_axial_rotation	L3_L4_Flex_Ext	L3_L4_Lat_Bending	L3_L4_axial_rotation	L2_L3_Flex_Ext	L2_L3_Lat_Bending	L2_L3_axial_rotation	L1_L2_Flex_Ext	L1_L2_Lat_Bending	L1_L2_axial_rotation	L1_T12_Flex_Ext	L1_T12_Lat_Bending	L1_T12_axial_rotation	Abs_r3	Abs_r2	Abs_r1	Abs_t1	Abs_t2	neck_flexion	neck_bending	neck_rotation	arm_flex_r	arm_add_r	arm_rot_r	elbow_flex_r	pro_sup_r	wrist_flex_r	wrist_dev_r	arm_flex_l	arm_add_l	arm_rot_l	elbow_flex_l	pro_sup_l	wrist_flex_l	wrist_dev_l
      2.51666667	    114.39395947	    -14.74629876	   -183.38274835	     -0.04253711	      2.19703080	      0.09071188	     69.43826172	    -13.82224112	     21.90448553	     80.63275428	      1.40730705	     56.12361031	     -3.01196785	      0.00000000	     57.61059783	     -1.79766738	     -4.30504231	     75.13227072	      1.31130550	     51.82183400	     -9.56972518	      0.00000000	     -0.05709444	     -2.17119180	     -0.01294552	     -0.10603008	     -2.88768510	     -0.01375461	     -0.09380045	     -5.27903575	     -0.01375461	     -0.06525323	     -5.27903575	     -0.01132733	     -0.05301790	     -4.42749433	     -0.01051823	     -0.03262376	     -3.36317610	     -0.00970914	     -0.40781987	    -24.56095592	     -0.07199909	      0.00000000	      0.00000000	    -18.71894610	     79.07308747	    -20.76634359	      9.73906527	     18.67510290	    -30.65133495	     36.39475279	     89.99559364	      0.00000000	      0.00000000	     22.10425182	      4.38874210	     68.50732548	     35.30934298	     89.99559364	      0.00000000	      0.00000000
      2.53333333	    113.98058533	    -17.08494023	   -183.21769086	     -0.04281770	      2.19682503	      0.08617237	     70.04417490	    -14.87534843	     23.96651840	     81.22986348	      1.41772857	     56.87694152	     -2.08809612	      0.00000000	     56.55707859	     -0.78790087	     -6.76248620	     74.08811601	      1.29308156	     51.71572705	     -9.06628559	      0.00000000	     -0.05603866	     -2.53564097	      0.23720622	     -0.10406940	     -3.37240249	      0.25203161	     -0.09206592	     -6.16515745	      0.25203161	     -0.06404659	     -6.16515745	      0.20755544	     -0.05203750	     -5.17067906	      0.19273005	     -0.03202049	     -3.92770786	      0.17790466	     -0.40027858	    -28.68367775	      1.31926982	      0.00000000	      0.00000000	    -18.59702658	     76.55185407	    -19.35161768	      7.81911904	     19.69209442	    -34.20197336	     40.25677958	     89.99559364	      0.00000000	      0.00000000	     26.10599075	      5.32074673	     87.68481845	     35.16083794	     89.99559364	      0.00000000	      0.00000000
      2.55000000	    113.61920392	    -19.20531674	   -182.61832694	     -0.04289404	      2.19554552	      0.08261443	     70.56182313	    -16.23356336	     25.75768291	     81.94619800	      1.43023096	     57.65062732	     -1.26507565	      0.00000000	     55.58075437	      0.50963566	     -8.76865716	     73.16327207	      1.27693999	     51.55598818	     -8.34366381	      0.00000000	     -0.05329118	     -2.86900702	      0.39337767	     -0.09896706	     -3.81577934	      0.41796378	     -0.08755209	     -6.97570367	      0.41796378	     -0.06090649	     -6.97570367	      0.34420547	     -0.04948619	     -5.85047912	      0.31961936	     -0.03045058	     -4.44409187	      0.29503326	     -0.38065359	    -32.45478121	      2.18784861	      0.00000000	      0.00000000	    -18.68028542	     74.44071731	    -17.98502464	      5.41862605	     20.62857744	    -37.59831349	     44.12208155	     89.99559364	      0.00000000	      0.00000000	     29.42704385	      7.24701713	    104.12166009	     35.98522410	     89.99559364	      0.00000000	      0.00000000
      2.56666667	    113.15673946	    -20.98991554	   -181.84612937	     -0.04297791	      2.19335284	      0.08035224	     70.86793284	    -18.04541192	     26.87018286	     82.60803750	      1.44178224	     58.67772503	      0.13768723	      0.00000000	     54.59922056	      2.05387414	    -10.02719956	     72.44768478	      1.26445063	     51.44204856	     -7.74831858	      0.00000000	     -0.05753080	     -3.14176192	      0.40443026	     -0.10684045	     -4.17854335	      0.42970716	     -0.09451735	     -7.63887993	      0.42970716	     -0.06575195	     -7.63887993	      0.35387648	     -0.05342310	     -6.40668091	      0.32859959	     -0.03287310	     -4.86658921	      0.30332270	     -0.41093675	    -35.54023919	      2.24931980	      0.00000000	      0.00000000	    -19.21012021	     72.11409451	    -16.75438760	      2.25070923	     20.79634632	    -37.90691933	     48.37541418	     89.99559364	      0.00000000	      0.00000000	     31.86419720	      9.35276569	    115.77091354	     37.51190409	     89.99559364	      0.00000000	      0.00000000
      2.58333333	    112.79244120	    -21.91066396	   -181.01634564	     -0.04305159	      2.19171258	      0.07963012	     70.81905043	    -19.50536124	     27.27275555	     83.06205774	      1.44970639	     59.35586369	      0.94601139	      0.00000000	     54.04142899	      3.28241408	    -10.31711039	     72.13281765	      1.25895517	     51.39887282	     -7.50406873	      0.00000000	     -0.05628051	     -3.27559925	      0.28644746	     -0.10451853	     -4.35654700	      0.30435043	     -0.09246325	     -7.96429202	      0.30435043	     -0.06432299	     -7.96429202	      0.25064153	     -0.05226208	     -6.67960199	      0.23273856	     -0.03215868	     -5.07390324	      0.21483560	     -0.40200605	    -37.05423385	      1.59313484	      0.00000000	      0.00000000	    -20.17977532	     69.85395891	    -15.54719536	     -1.07542433	     19.93858176	    -36.02019145	     52.81892520	     89.99559364	      0.00000000	      0.00000000	     32.87609337	     11.05635835	    119.83529065	     38.20054178	     89.99559364	      0.00000000	      0.00000000
      2.60000000	    112.39869431	    -21.85874421	   -180.53262366	     -0.04339446	      2.19148910	      0.07973409	     70.39452911	    -20.36706864	     26.64402163	     83.20735508	      1.45224231	     59.59029067	      1.36340019	      0.00000000	     53.82303501	      3.82960728	     -9.66022663	     72.23922301	      1.26081229	     51.38687584	     -7.52405914	      0.00000000	     -0.05782956	     -3.26216924	      0.07553537	     -0.10739528	     -4.33868509	      0.08025633	     -0.09500819	     -7.93163830	      0.08025633	     -0.06609341	     -7.93163830	      0.06609345	     -0.05370053	     -6.65221552	      0.06137249	     -0.03304381	     -5.05310016	      0.05665152	     -0.41307078	    -36.90231091	      0.42010505	      0.00000000	      0.00000000	    -21.24809469	     67.86715977	    -14.40202550	     -3.83872320	     18.25873367	    -33.11968245	     57.38351359	     89.99559364	      0.00000000	      0.00000000	     32.82452763	     12.28826074	    117.43594706	     37.13484952	     89.99559364	      0.00000000	      0.00000000
